<svg width="26" height="26" viewBox="0 0 26 26" fill="none" xmlns="http://www.w3.org/2000/svg">
<path fill-rule="evenodd" clip-rule="evenodd" d="M22.1071 15.1342C22.1102 15.7637 22.387 16.3608 22.8654 16.77C24.5013 18.2325 23.3421 20.735 21.0238 20.735H16.9071C16.3735 22.1914 14.9915 23.1631 13.4404 23.1725C11.8843 23.1792 10.494 22.2016 9.97378 20.735H5.85712C3.53878 20.735 2.37962 18.2325 4.01545 16.77C4.49388 16.3608 4.77067 15.7637 4.77378 15.1342V9.90166C4.77378 5.63332 8.65212 2.16666 13.4404 2.16666C18.2288 2.16666 22.1071 5.63332 22.1071 9.90166V15.1342ZM11.7938 20.735C12.188 21.2453 12.7956 21.5451 13.4404 21.5475C14.07 21.5319 14.659 21.2335 15.0438 20.735H11.7938Z" fill="#14841F"/>
</svg>
