<svg width="26" height="26" viewBox="0 0 26 26" fill="none" xmlns="http://www.w3.org/2000/svg">
<path fill-rule="evenodd" clip-rule="evenodd" d="M22.8654 16.77C22.3841 16.3583 22.1071 15.7567 22.1071 15.1233V9.90166C22.1071 5.62249 18.2288 2.16666 13.4404 2.16666C8.65212 2.16666 4.77378 5.62249 4.77378 9.90166V15.1233C4.77382 15.7567 4.49675 16.3583 4.01545 16.77C2.37962 18.2325 3.53878 20.7242 5.85712 20.7242H9.97378C10.499 22.1871 11.8861 23.1628 13.4404 23.1628C14.9948 23.1628 16.3819 22.1871 16.9071 20.7242H21.0238C23.3421 20.7242 24.5013 18.2325 22.8654 16.77ZM13.4404 21.5367C12.7956 21.5342 12.188 21.2344 11.7938 20.7242H15.0438C14.6621 21.2264 14.0712 21.5258 13.4404 21.5367ZM21.0346 19.0992C21.4285 19.1348 21.8035 18.9236 21.9771 18.5683C22.0614 18.3543 21.9847 18.1104 21.7929 17.9833C20.9767 17.2552 20.5048 16.217 20.4929 15.1233V9.90166C20.4929 6.53249 17.3296 3.79166 13.4513 3.79166C9.57295 3.79166 6.40962 6.53249 6.40962 9.90166V15.1233C6.39773 16.217 5.92584 17.2552 5.10962 17.9833C4.91388 18.1072 4.83237 18.3518 4.91462 18.5683C5.08827 18.9236 5.46326 19.1348 5.85712 19.0992H21.0346Z" fill="#8EA090"/>
</svg>
