<svg width="26" height="26" viewBox="0 0 26 26" fill="none" xmlns="http://www.w3.org/2000/svg">
<path fill-rule="evenodd" clip-rule="evenodd" d="M10.8334 2.16666H15.4267C17.7252 2.16666 19.9296 3.07975 21.5549 4.70506C23.1803 6.33038 24.0934 8.53478 24.0934 10.8333V15.4267C24.0934 20.2131 20.2132 24.0933 15.4267 24.0933H10.8334C6.04689 24.0933 2.16669 20.2131 2.16669 15.4267V10.8333C2.16669 6.04686 6.04689 2.16666 10.8334 2.16666ZM13.13 19.63C13.7283 19.63 14.2134 19.145 14.2134 18.5467V13.13C14.215 12.842 14.102 12.5653 13.8992 12.3608L9.56585 8.02749C9.29106 7.75269 8.89053 7.64537 8.51515 7.74595C8.13977 7.84654 7.84657 8.13974 7.74599 8.51512C7.6454 8.8905 7.75272 9.29103 8.02752 9.56582L12.0467 13.5742V18.5467C12.0467 19.145 12.5317 19.63 13.13 19.63Z" fill="#14841F"/>
</svg>
