<svg width="24" height="24" viewBox="0 0 24 24" fill="none" xmlns="http://www.w3.org/2000/svg">
<path d="M2.34999 9.55L10.27 13.55C11.0777 13.9292 12.0123 13.9292 12.82 13.55L21.61 9.55C21.9283 9.37388 22.1259 9.03879 22.1259 8.675C22.1259 8.31121 21.9283 7.97612 21.61 7.8L12.82 3.8C12.4369 3.62617 12.0207 3.53746 11.6 3.54C11.1387 3.53971 10.6836 3.64579 10.27 3.85L2.34999 7.85C2.05578 8.03234 1.87678 8.35386 1.87678 8.7C1.87678 9.04614 2.05578 9.36766 2.34999 9.55Z" fill="black"/>
<path d="M21.29 12L12.44 15.69C11.8987 15.946 11.2713 15.946 10.73 15.69L2.88999 12C2.51155 11.8296 2.06638 11.9943 1.88999 12.37C1.80535 12.5515 1.79684 12.7594 1.86634 12.9472C1.93584 13.135 2.07758 13.2873 2.25999 13.37L10.08 17C10.5659 17.2369 11.0994 17.36 11.64 17.36C12.1227 17.3608 12.6 17.2585 13.04 17.06L21.86 13.39C22.2438 13.2326 22.4274 12.7938 22.27 12.41C22.1126 12.0262 21.6738 11.8426 21.29 12Z" fill="black"/>
<path d="M21.29 15.08L12.44 18.77C11.8987 19.026 11.2713 19.026 10.73 18.77L2.88999 15.09C2.64527 14.9775 2.35909 15.004 2.13927 15.1597C1.91944 15.3154 1.79936 15.5765 1.82427 15.8447C1.84917 16.1129 2.01527 16.3475 2.25999 16.46L10.08 20.08C10.5652 20.32 11.0987 20.4465 11.64 20.45C12.1234 20.4474 12.6007 20.3417 13.04 20.14L21.86 16.47C22.0496 16.3949 22.2004 16.2459 22.2777 16.0572C22.3551 15.8686 22.3523 15.6566 22.27 15.47C22.1053 15.0935 21.6683 14.9195 21.29 15.08Z" fill="black"/>
</svg>
