<svg width="26" height="26" viewBox="0 0 26 26" fill="none" xmlns="http://www.w3.org/2000/svg">
<path fill-rule="evenodd" clip-rule="evenodd" d="M13.6468 3.25H20.0168C21.8117 3.25 23.2668 4.70507 23.2668 6.5V18.7308C23.2668 20.5258 21.8117 21.9808 20.0168 21.9808H13.6468C11.8519 21.9808 10.3968 20.5258 10.3968 18.7308V14.9608H12.9101C14.1068 14.9608 15.0768 13.9908 15.0768 12.7942V12.4367C15.0768 11.24 14.1068 10.27 12.9101 10.27H10.3968V6.5C10.3968 4.70507 11.8519 3.25 13.6468 3.25ZM16.1926 8.27667H19.8218C20.2705 8.27667 20.6343 7.9129 20.6343 7.46417C20.6343 7.01544 20.2705 6.65167 19.8218 6.65167H16.1926C15.7439 6.65167 15.3801 7.01544 15.3801 7.46417C15.3801 7.9129 15.7439 8.27667 16.1926 8.27667Z" fill="#14841F"/>
<path d="M13.051 11.3208H10.4185V13.9208H13.051C13.5954 13.9208 14.0368 13.4795 14.0368 12.935V12.3067C14.0368 11.7622 13.5954 11.3208 13.051 11.3208Z" fill="#14841F"/>
<path fill-rule="evenodd" clip-rule="evenodd" d="M2.17431 6.96583C2.04981 5.08553 3.4592 3.45412 5.33764 3.30417C7.20594 3.46521 8.59963 5.09519 8.46847 6.96583V17.0625C8.47862 17.5799 8.33538 18.0888 8.05681 18.525L6.03097 21.6558C5.88748 21.9131 5.61597 22.0725 5.32139 22.0725C5.02681 22.0725 4.7553 21.9131 4.61181 21.6558L2.58597 18.525C2.31202 18.0868 2.16918 17.5793 2.17431 17.0625V6.96583ZM5.32681 10.9958C5.77554 10.9958 6.1393 10.6321 6.1393 10.1833V6.435C6.14225 6.21862 6.05759 6.01024 5.90458 5.85723C5.75156 5.70421 5.54318 5.61956 5.32681 5.6225C4.87807 5.6225 4.51431 5.98627 4.51431 6.435V10.1833C4.51431 10.6321 4.87807 10.9958 5.32681 10.9958Z" fill="#14841F"/>
</svg>
