<svg width="26" height="26" viewBox="0 0 26 26" fill="none" xmlns="http://www.w3.org/2000/svg">
<path fill-rule="evenodd" clip-rule="evenodd" d="M21.2117 18.1025L21.4717 19.3375C21.7181 20.4052 21.4748 21.5272 20.8083 22.397C20.1418 23.2668 19.1217 23.7935 18.0267 23.8333H7.97333C6.87827 23.7935 5.8582 23.2668 5.19171 22.397C4.52522 21.5272 4.28195 20.4052 4.52833 19.3375L4.78833 18.1025C5.08737 16.4307 6.52451 15.2021 8.2225 15.1667H17.7775C19.4755 15.2021 20.9126 16.4307 21.2117 18.1025ZM18.0267 22.1975C18.5768 22.1911 19.0945 21.9362 19.435 21.5042V21.515C19.8528 20.9909 20.0156 20.3079 19.8792 19.6517L19.6192 18.4167C19.4749 17.5014 18.7034 16.8161 17.7775 16.7808H8.2225C7.29665 16.8161 6.5251 17.5014 6.38084 18.4167L6.12084 19.6517C5.98776 20.3045 6.15037 20.9827 6.565 21.5042C6.90553 21.9362 7.42323 22.1911 7.97334 22.1975H18.0267Z" fill="#8EA090"/>
<path fill-rule="evenodd" clip-rule="evenodd" d="M13.5417 13H12.4583C10.0651 13 8.12498 11.0599 8.12498 8.66664V5.80664C8.1221 4.84037 8.50467 3.91284 9.18793 3.22958C9.87119 2.54632 10.7987 2.16375 11.765 2.16664H14.235C15.2013 2.16375 16.1288 2.54632 16.812 3.22958C17.4953 3.91284 17.8779 4.84037 17.875 5.80664V8.66664C17.875 11.0599 15.9349 13 13.5417 13ZM11.765 3.79164C10.6521 3.79164 9.74998 4.69379 9.74998 5.80664V8.66664C9.74998 10.1624 10.9625 11.375 12.4583 11.375H13.5417C15.0374 11.375 16.25 10.1624 16.25 8.66664V5.80664C16.25 5.27223 16.0377 4.75971 15.6598 4.38182C15.2819 4.00394 14.7694 3.79164 14.235 3.79164H11.765Z" fill="#8EA090"/>
</svg>
