<svg width="26" height="26" viewBox="0 0 26 26" fill="none" xmlns="http://www.w3.org/2000/svg">
<path d="M18.0266 23.8333H7.97327C6.87821 23.7935 5.85814 23.2668 5.19165 22.397C4.52516 21.5272 4.28189 20.4052 4.52827 19.3375L4.78827 18.1025C5.08731 16.4307 6.52445 15.2021 8.22244 15.1667H17.7774C19.4754 15.2021 20.9126 16.4307 21.2116 18.1025L21.4716 19.3375C21.718 20.4052 21.4747 21.5272 20.8082 22.397C20.1417 23.2668 19.1217 23.7935 18.0266 23.8333Z" fill="#14841F"/>
<path d="M13.5416 13H12.4583C10.065 13 8.12494 11.0599 8.12494 8.66667V5.80667C8.12205 4.8404 8.50462 3.91287 9.18788 3.22961C9.87114 2.54636 10.7987 2.16378 11.7649 2.16667H14.2349C15.2012 2.16378 16.1287 2.54636 16.812 3.22961C17.4953 3.91287 17.8778 4.8404 17.8749 5.80667V8.66667C17.8749 9.81594 17.4184 10.9181 16.6057 11.7308C15.7931 12.5435 14.6909 13 13.5416 13Z" fill="#14841F"/>
</svg>
