<svg width="33" height="35" viewBox="0 0 33 35" fill="none" xmlns="http://www.w3.org/2000/svg">
<rect width="33" height="34" rx="14" fill="#DAECDD"/>
<path d="M22.4134 32.6667H11.5867C10.4074 32.6238 9.30886 32.0565 8.5911 31.1198C7.87334 30.1831 7.61136 28.9749 7.8767 27.825L8.1567 26.495C8.47874 24.6946 10.0264 23.3715 11.855 23.3333H22.145C23.9736 23.3715 25.5213 24.6946 25.8434 26.495L26.1234 27.825C26.3887 28.9749 26.1267 30.1831 25.409 31.1198C24.6912 32.0565 23.5927 32.6238 22.4134 32.6667Z" fill="#0A6113"/>
<path d="M17.5834 21H16.4167C13.8394 21 11.75 18.9107 11.75 16.3333V13.2533C11.7469 12.2127 12.1589 11.2139 12.8947 10.478C13.6306 9.74222 14.6294 9.33022 15.67 9.33333H18.33C19.3706 9.33022 20.3695 9.74222 21.1053 10.478C21.8411 11.2139 22.2531 12.2127 22.25 13.2533V16.3333C22.25 17.571 21.7584 18.758 20.8832 19.6332C20.008 20.5083 18.821 21 17.5834 21Z" fill="#0A6113"/>
</svg>
