<svg width="750" height="500" viewBox="0 0 750 500" fill="none" xmlns="http://www.w3.org/2000/svg">
<mask id="mask0_1_200" style="mask-type:alpha" maskUnits="userSpaceOnUse" x="0" y="0" width="750" height="500">
<rect width="750" height="500" fill="#D9D9D9"/>
</mask>
<g mask="url(#mask0_1_200)">
<mask id="mask1_1_200" style="mask-type:luminance" maskUnits="userSpaceOnUse" x="-1" y="0" width="751" height="501">
<path d="M749.66 0.179993H-0.339996V500.18H749.66V0.179993Z" fill="white"/>
</mask>
<g mask="url(#mask1_1_200)">
<path d="M768.51 509.18V447.52C743.51 460.36 719.7 470.7 691.01 472.14C661.43 473.63 634.32 465.96 607.94 453.14C582.57 440.81 556.94 434.47 529.18 443.25C504.76 450.99 481.98 470.03 476.08 495.83C475.11 500.211 474.683 504.695 474.81 509.18H768.51Z" fill="url(#paint0_linear_1_200)"/>
<g opacity="0.3">
<path d="M473.08 380.95C473.454 382.312 473.415 383.755 472.969 385.096C472.522 386.436 471.688 387.614 470.572 388.48C469.456 389.346 468.108 389.862 466.699 389.962C465.289 390.061 463.882 389.741 462.655 389.041C461.428 388.34 460.436 387.292 459.806 386.027C459.175 384.763 458.933 383.34 459.112 381.939C459.29 380.537 459.88 379.22 460.807 378.154C461.734 377.088 462.957 376.321 464.32 375.95C466.144 375.456 468.09 375.705 469.732 376.642C471.373 377.579 472.577 379.128 473.08 380.95Z" fill="url(#paint1_linear_1_200)"/>
<g opacity="0.78">
<path d="M443.73 358.67C444.046 359.834 444.009 361.066 443.625 362.209C443.24 363.352 442.526 364.356 441.571 365.093C440.617 365.831 439.465 366.268 438.261 366.351C437.058 366.434 435.857 366.158 434.811 365.559C433.764 364.96 432.919 364.063 432.381 362.983C431.844 361.903 431.639 360.689 431.792 359.492C431.945 358.296 432.449 357.171 433.241 356.262C434.032 355.352 435.076 354.697 436.24 354.38C437.802 353.957 439.468 354.172 440.872 354.976C442.276 355.78 443.304 357.109 443.73 358.67Z" fill="url(#paint2_linear_1_200)"/>
</g>
<g opacity="0.55">
<path d="M414.38 336.4C414.642 337.366 414.611 338.388 414.292 339.336C413.973 340.284 413.38 341.117 412.588 341.729C411.796 342.34 410.84 342.703 409.842 342.771C408.844 342.84 407.848 342.611 406.979 342.113C406.111 341.615 405.41 340.871 404.965 339.975C404.52 339.079 404.35 338.071 404.477 337.079C404.605 336.086 405.023 335.154 405.681 334.399C406.338 333.645 407.204 333.102 408.17 332.84C408.811 332.666 409.481 332.62 410.14 332.704C410.8 332.789 411.436 333.003 412.013 333.333C412.589 333.664 413.095 334.105 413.501 334.631C413.908 335.157 414.206 335.758 414.38 336.4Z" fill="url(#paint3_linear_1_200)"/>
</g>
<g opacity="0.33">
<path d="M385.02 314.12C385.224 314.883 385.198 315.689 384.945 316.437C384.692 317.185 384.223 317.842 383.598 318.324C382.972 318.806 382.218 319.092 381.43 319.146C380.642 319.2 379.856 319.019 379.17 318.627C378.485 318.235 377.931 317.649 377.578 316.942C377.225 316.236 377.089 315.441 377.187 314.657C377.286 313.873 377.614 313.136 378.13 312.539C378.647 311.942 379.329 311.511 380.09 311.3C380.599 311.159 381.131 311.121 381.654 311.186C382.178 311.252 382.684 311.421 383.142 311.683C383.601 311.945 384.003 312.296 384.325 312.714C384.647 313.132 384.883 313.61 385.02 314.12Z" fill="url(#paint4_linear_1_200)"/>
</g>
<g opacity="0.1">
<path d="M353.58 295.5C353.007 295.661 352.398 295.648 351.833 295.462C351.267 295.276 350.769 294.926 350.403 294.457C350.036 293.987 349.818 293.419 349.776 292.825C349.734 292.231 349.869 291.638 350.165 291.121C350.461 290.604 350.904 290.187 351.438 289.923C351.971 289.659 352.572 289.56 353.162 289.638C353.752 289.716 354.306 289.968 354.753 290.362C355.199 290.756 355.519 291.274 355.67 291.85C355.87 292.611 355.763 293.42 355.372 294.103C354.981 294.785 354.337 295.287 353.58 295.5Z" fill="url(#paint5_linear_1_200)"/>
</g>
</g>
<path d="M480.98 396.27C477.776 399.987 476.179 404.825 476.541 409.72C476.903 414.614 479.194 419.164 482.91 422.37L631.03 550.37C632.87 551.958 635.004 553.169 637.311 553.932C639.619 554.695 642.054 554.996 644.478 554.818C646.902 554.639 649.267 553.985 651.437 552.893C653.608 551.8 655.543 550.29 657.13 548.45C660.334 544.733 661.931 539.895 661.569 535C661.207 530.106 658.916 525.556 655.2 522.35L507.08 394.35C505.241 392.762 503.106 391.551 500.799 390.788C498.491 390.025 496.056 389.724 493.632 389.902C491.208 390.081 488.843 390.735 486.673 391.827C484.502 392.92 482.567 394.43 480.98 396.27Z" fill="url(#paint6_linear_1_200)"/>
<path d="M544.32 356.75C541.075 360.513 539.457 365.411 539.821 370.366C540.184 375.322 542.5 379.931 546.26 383.18L696.33 512.92C700.097 516.167 704.999 517.786 709.959 517.42C714.918 517.055 719.53 514.735 722.78 510.97C726.021 507.199 727.631 502.294 727.256 497.336C726.881 492.377 724.551 487.771 720.78 484.53L570.76 354.8C566.995 351.553 562.094 349.935 557.136 350.3C552.178 350.666 547.568 352.986 544.32 356.75Z" fill="url(#paint7_linear_1_200)"/>
<path d="M359.54 369.74C357.618 371.967 356.153 374.55 355.23 377.343C354.307 380.137 353.943 383.084 354.159 386.018C354.375 388.952 355.168 391.814 356.491 394.441C357.814 397.069 359.642 399.409 361.87 401.33L541.12 556.33C545.619 560.192 551.467 562.111 557.38 561.667C563.293 561.223 568.788 558.451 572.66 553.96C576.541 549.463 578.477 543.609 578.041 537.685C577.606 531.76 574.836 526.252 570.34 522.37L391.08 367.37C386.58 363.508 380.733 361.589 374.82 362.033C368.907 362.477 363.412 365.249 359.54 369.74Z" fill="url(#paint8_linear_1_200)"/>
<path d="M374 453.53C374.226 454.447 374.176 455.41 373.855 456.297C373.533 457.185 372.956 457.958 372.196 458.517C371.435 459.076 370.526 459.397 369.582 459.44C368.639 459.482 367.705 459.243 366.897 458.754C366.09 458.265 365.446 457.547 365.047 456.691C364.648 455.836 364.511 454.881 364.655 453.948C364.799 453.015 365.216 452.146 365.854 451.45C366.492 450.754 367.323 450.263 368.24 450.04C369.466 449.741 370.761 449.941 371.841 450.595C372.921 451.249 373.697 452.304 374 453.53Z" fill="url(#paint9_linear_1_200)"/>
<g opacity="0.78">
<path d="M354.78 438.18C354.968 438.962 354.92 439.782 354.643 440.536C354.365 441.291 353.871 441.947 353.221 442.42C352.571 442.894 351.796 443.165 350.993 443.198C350.189 443.232 349.394 443.027 348.707 442.609C348.02 442.191 347.473 441.579 347.133 440.85C346.794 440.121 346.678 439.308 346.8 438.513C346.922 437.718 347.277 436.978 347.82 436.385C348.363 435.791 349.069 435.372 349.85 435.18C350.371 435.053 350.911 435.03 351.441 435.112C351.97 435.194 352.479 435.38 352.936 435.659C353.394 435.937 353.793 436.303 354.109 436.736C354.425 437.169 354.653 437.659 354.78 438.18Z" fill="url(#paint10_linear_1_200)"/>
</g>
<g opacity="0.55">
<path d="M335.55 422.85C335.711 423.499 335.676 424.182 335.449 424.811C335.222 425.441 334.813 425.989 334.274 426.386C333.735 426.782 333.091 427.01 332.422 427.041C331.754 427.071 331.091 426.902 330.519 426.555C329.947 426.209 329.49 425.7 329.207 425.094C328.924 424.488 328.827 423.811 328.929 423.15C329.031 422.488 329.327 421.872 329.779 421.379C330.231 420.886 330.82 420.538 331.47 420.38C332.338 420.169 333.255 420.31 334.02 420.773C334.785 421.236 335.335 421.982 335.55 422.85Z" fill="url(#paint11_linear_1_200)"/>
</g>
<g opacity="0.33">
<path d="M316.33 407.51C316.414 407.852 316.43 408.207 316.377 408.556C316.323 408.904 316.202 409.238 316.02 409.539C315.837 409.841 315.597 410.103 315.313 410.312C315.029 410.52 314.707 410.671 314.365 410.755C314.023 410.839 313.668 410.855 313.319 410.802C312.971 410.748 312.637 410.627 312.335 410.445C312.034 410.262 311.772 410.022 311.563 409.738C311.355 409.454 311.204 409.132 311.12 408.79C310.95 408.099 311.062 407.369 311.43 406.761C311.799 406.152 312.394 405.715 313.085 405.545C313.776 405.375 314.506 405.487 315.114 405.855C315.723 406.224 316.16 406.819 316.33 407.51Z" fill="url(#paint12_linear_1_200)"/>
</g>
<g opacity="0.1">
<path d="M295.66 394.58C295.276 394.676 294.871 394.655 294.499 394.521C294.126 394.387 293.801 394.145 293.566 393.826C293.331 393.507 293.196 393.126 293.178 392.73C293.16 392.334 293.26 391.942 293.465 391.603C293.671 391.264 293.972 390.994 294.331 390.827C294.69 390.659 295.091 390.602 295.482 390.663C295.874 390.724 296.239 390.899 296.53 391.168C296.822 391.436 297.027 391.785 297.12 392.17C297.244 392.683 297.16 393.224 296.886 393.676C296.613 394.127 296.172 394.452 295.66 394.58Z" fill="url(#paint13_linear_1_200)"/>
</g>
<path d="M381.19 466.07C379.561 467.961 378.321 470.154 377.54 472.524C376.759 474.895 376.453 477.396 376.638 479.884C376.824 482.373 377.498 484.801 378.622 487.029C379.746 489.257 381.299 491.242 383.19 492.87L535.3 624.39C537.191 626.02 539.385 627.262 541.756 628.044C544.127 628.826 546.63 629.132 549.12 628.947C551.609 628.761 554.038 628.086 556.267 626.961C558.496 625.836 560.482 624.283 562.11 622.39C563.739 620.499 564.979 618.306 565.76 615.936C566.541 613.565 566.847 611.064 566.662 608.576C566.476 606.087 565.802 603.659 564.678 601.431C563.554 599.203 562.001 597.218 560.11 595.59L408 464.09C406.11 462.459 403.917 461.215 401.547 460.432C399.176 459.648 396.675 459.34 394.185 459.524C391.695 459.708 389.266 460.38 387.036 461.504C384.806 462.627 382.82 464.179 381.19 466.07Z" fill="url(#paint14_linear_1_200)"/>
<path opacity="0.3" d="M682.66 258.39C680.735 260.621 679.268 263.21 678.343 266.008C677.418 268.806 677.053 271.759 677.27 274.698C677.486 277.637 678.279 280.504 679.604 283.137C680.929 285.769 682.759 288.115 684.99 290.04L864.59 445.29C866.821 447.216 869.409 448.684 872.207 449.61C875.005 450.536 877.958 450.901 880.898 450.684C883.837 450.468 886.705 449.674 889.338 448.349C891.97 447.024 894.316 445.192 896.24 442.96C898.164 440.729 899.63 438.141 900.554 435.343C901.478 432.546 901.842 429.593 901.624 426.655C901.407 423.717 900.613 420.85 899.288 418.219C897.962 415.588 896.132 413.244 893.9 411.32L714.28 256.06C709.776 252.181 703.916 250.248 697.988 250.685C692.06 251.122 686.547 253.893 682.66 258.39Z" fill="url(#paint15_linear_1_200)"/>
<path d="M653.75 316.44C652.162 318.28 650.951 320.414 650.188 322.721C649.425 325.029 649.124 327.464 649.302 329.888C649.481 332.312 650.135 334.677 651.227 336.847C652.32 339.018 653.83 340.953 655.67 342.54L803.79 470.54C807.507 473.743 812.344 475.339 817.237 474.979C822.131 474.619 826.681 472.332 829.89 468.62C833.094 464.903 834.691 460.065 834.329 455.17C833.967 450.276 831.676 445.726 827.96 442.52L679.84 314.52C676.125 311.315 671.29 309.717 666.397 310.077C661.505 310.437 656.955 312.726 653.75 316.44Z" fill="url(#paint16_linear_1_200)"/>
<g opacity="0.3">
<path d="M621.02 352.66C621.295 353.688 621.259 354.775 620.916 355.783C620.573 356.79 619.939 357.673 619.094 358.321C618.249 358.968 617.231 359.35 616.168 359.418C615.106 359.487 614.048 359.239 613.127 358.705C612.205 358.172 611.463 357.377 610.994 356.422C610.524 355.467 610.349 354.394 610.49 353.339C610.63 352.284 611.081 351.294 611.784 350.495C612.487 349.696 613.411 349.124 614.44 348.85C615.122 348.667 615.834 348.621 616.534 348.714C617.234 348.806 617.909 349.036 618.52 349.39C619.132 349.744 619.667 350.215 620.096 350.776C620.525 351.337 620.839 351.977 621.02 352.66Z" fill="url(#paint17_linear_1_200)"/>
<g opacity="0.78">
<path d="M598.99 335.78C599.222 336.657 599.188 337.583 598.894 338.441C598.6 339.299 598.059 340.05 597.338 340.601C596.617 341.151 595.749 341.475 594.844 341.533C593.939 341.591 593.037 341.379 592.252 340.925C591.467 340.47 590.835 339.793 590.434 338.98C590.034 338.166 589.883 337.252 590.002 336.353C590.12 335.453 590.502 334.61 591.1 333.927C591.698 333.245 592.484 332.756 593.36 332.52C593.944 332.364 594.552 332.325 595.151 332.405C595.75 332.484 596.327 332.681 596.85 332.984C597.373 333.287 597.831 333.689 598.198 334.169C598.565 334.649 598.834 335.196 598.99 335.78Z" fill="url(#paint18_linear_1_200)"/>
</g>
<g opacity="0.55">
<path d="M576.95 318.89C577.144 319.618 577.118 320.388 576.875 321.101C576.632 321.815 576.183 322.44 575.584 322.898C574.986 323.356 574.265 323.626 573.513 323.674C572.76 323.723 572.011 323.547 571.359 323.169C570.707 322.791 570.181 322.228 569.849 321.552C569.517 320.875 569.393 320.115 569.492 319.368C569.592 318.621 569.911 317.92 570.409 317.355C570.907 316.789 571.562 316.384 572.29 316.19C573.266 315.933 574.304 316.073 575.177 316.579C576.05 317.085 576.687 317.916 576.95 318.89Z" fill="url(#paint19_linear_1_200)"/>
</g>
<g opacity="0.33">
<path d="M554.91 302.01C555.056 302.583 555.03 303.186 554.835 303.744C554.64 304.302 554.284 304.79 553.813 305.146C553.341 305.503 552.775 305.712 552.185 305.748C551.595 305.783 551.007 305.644 550.496 305.347C549.985 305.05 549.573 304.609 549.312 304.078C549.051 303.548 548.952 302.952 549.029 302.366C549.105 301.78 549.352 301.229 549.741 300.784C550.129 300.338 550.64 300.016 551.21 299.86C551.594 299.755 551.995 299.727 552.39 299.778C552.785 299.83 553.166 299.959 553.511 300.159C553.855 300.359 554.156 300.626 554.396 300.944C554.637 301.262 554.811 301.624 554.91 302.01Z" fill="url(#paint20_linear_1_200)"/>
</g>
<g opacity="0.1">
<path d="M531.28 287.87C530.852 287.981 530.401 287.963 529.983 287.818C529.565 287.673 529.2 287.408 528.932 287.056C528.665 286.703 528.508 286.28 528.481 285.839C528.454 285.397 528.558 284.958 528.781 284.575C529.003 284.193 529.334 283.885 529.731 283.691C530.128 283.496 530.574 283.423 531.012 283.481C531.45 283.54 531.862 283.726 532.194 284.018C532.526 284.31 532.765 284.693 532.88 285.12C532.957 285.406 532.976 285.704 532.937 285.997C532.898 286.29 532.802 286.573 532.653 286.828C532.504 287.084 532.306 287.308 532.071 287.487C531.835 287.665 531.566 287.796 531.28 287.87Z" fill="url(#paint21_linear_1_200)"/>
</g>
</g>
<path opacity="0.4" d="M650.59 379.87C646.704 384.377 644.767 390.243 645.204 396.177C645.641 402.112 648.416 407.63 652.92 411.52L832.53 566.77C834.76 568.695 837.348 570.162 840.145 571.086C842.942 572.011 845.894 572.376 848.833 572.159C851.771 571.943 854.638 571.15 857.269 569.825C859.901 568.501 862.246 566.671 864.17 564.44C866.095 562.21 867.562 559.622 868.486 556.825C869.411 554.028 869.776 551.075 869.559 548.137C869.343 545.199 868.55 542.332 867.225 539.701C865.901 537.069 864.071 534.724 861.84 532.8L682.24 377.54C680.009 375.615 677.42 374.148 674.622 373.223C671.824 372.298 668.871 371.933 665.932 372.15C662.993 372.366 660.126 373.159 657.493 374.484C654.861 375.809 652.515 377.639 650.59 379.87Z" fill="url(#paint22_linear_1_200)"/>
<path opacity="0.5" d="M251.66 441.53C255.329 437.277 257.158 431.741 256.746 426.139C256.333 420.538 253.712 415.329 249.46 411.66L79.92 265.18C77.815 263.364 75.3728 261.98 72.7329 261.107C70.093 260.235 67.3071 259.891 64.5343 260.095C61.7615 260.299 59.0561 261.048 56.5726 262.298C54.089 263.548 51.8761 265.275 50.06 267.38C46.4129 271.629 44.5968 277.15 45.0091 282.734C45.4214 288.319 48.0284 293.513 52.26 297.18L221.77 443.73C223.876 445.551 226.32 446.939 228.963 447.814C231.605 448.689 234.395 449.034 237.171 448.83C239.948 448.625 242.656 447.875 245.143 446.623C247.629 445.37 249.844 443.64 251.66 441.53Z" fill="url(#paint23_linear_1_200)"/>
<path d="M72.25 235.9H-29.15V430.69H72.25C85.0411 430.693 97.7075 428.175 109.526 423.282C121.344 418.389 132.082 411.216 141.128 402.172C150.174 393.128 157.349 382.391 162.245 370.574C167.14 358.757 169.66 346.091 169.66 333.3C169.66 320.508 167.14 307.842 162.245 296.024C157.349 284.207 150.174 273.469 141.129 264.424C132.083 255.38 121.345 248.205 109.526 243.311C97.7081 238.417 85.0416 235.899 72.25 235.9Z" fill="url(#paint24_linear_1_200)"/>
<path d="M41.12 443.59C39.2773 445.723 37.8733 448.199 36.988 450.875C36.1028 453.551 35.7537 456.376 35.9608 459.187C36.1679 461.998 36.9271 464.741 38.195 467.259C39.4629 469.777 41.2146 472.02 43.35 473.86L215.19 622.41C217.324 624.253 219.8 625.657 222.478 626.543C225.155 627.428 227.98 627.777 230.792 627.57C233.604 627.363 236.348 626.604 238.866 625.336C241.385 624.068 243.629 622.316 245.47 620.18C249.188 615.868 251.041 610.255 250.621 604.576C250.201 598.898 247.542 593.618 243.23 589.9L71.39 441.36C69.2567 439.517 66.7811 438.113 64.1049 437.228C61.4286 436.343 58.604 435.994 55.7928 436.201C52.9815 436.408 50.2386 437.167 47.7209 438.435C45.2033 439.703 42.9602 441.455 41.12 443.59Z" fill="url(#paint25_linear_1_200)"/>
<path opacity="0.4" d="M138.28 436.99C136.104 439.51 134.447 442.433 133.401 445.594C132.356 448.754 131.944 452.09 132.188 455.41C132.432 458.73 133.328 461.969 134.825 464.943C136.321 467.916 138.389 470.566 140.91 472.74L343.78 648.11C346.3 650.283 349.223 651.939 352.383 652.983C355.543 654.027 358.878 654.437 362.197 654.192C365.516 653.947 368.754 653.051 371.726 651.554C374.698 650.058 377.347 647.99 379.52 645.47C383.908 640.381 386.096 633.757 385.603 627.056C385.11 620.354 381.976 614.122 376.89 609.73L174.02 434.36C168.931 429.972 162.307 427.784 155.606 428.277C148.904 428.77 142.672 431.904 138.28 436.99Z" fill="url(#paint26_linear_1_200)"/>
<path d="M771.11 -15.2H183.66C181.449 -1.66738 181.809 12.1606 184.72 25.56C195.94 74.65 239.29 110.88 285.72 125.56C338.47 142.27 387.29 130.2 435.57 106.76C485.75 82.39 537.33 67.76 593.57 70.63C650.21 73.52 696.84 94.5 746.19 120.18C753.25 123.85 761.91 128.64 771.11 132.56V-15.2Z" fill="url(#paint27_linear_1_200)"/>
<path d="M691.24 204.28C693.414 201.768 695.072 198.853 696.119 195.7C697.166 192.547 697.581 189.219 697.342 185.906C697.102 182.592 696.212 179.358 694.723 176.389C693.233 173.42 691.173 170.773 688.66 168.6L486.14 -6.41997C483.628 -8.59254 480.712 -10.2487 477.559 -11.2939C474.407 -12.3391 471.079 -12.7528 467.766 -12.5114C464.454 -12.2699 461.221 -11.378 458.253 -9.88672C455.286 -8.3954 452.641 -6.33388 450.47 -3.81997C448.299 -1.30579 446.645 1.61155 445.602 4.76531C444.56 7.91906 444.149 11.2474 444.393 14.5601C444.637 17.8727 445.532 21.1048 447.026 24.0715C448.52 27.0382 450.584 29.6814 453.1 31.85L655.57 206.85C660.641 211.239 667.248 213.434 673.937 212.952C680.626 212.47 686.85 209.35 691.24 204.28Z" fill="url(#paint28_linear_1_200)"/>
<path d="M731.58 155.25C733.756 152.73 735.413 149.807 736.459 146.646C737.504 143.486 737.916 140.15 737.672 136.83C737.428 133.51 736.532 130.271 735.035 127.297C733.539 124.324 731.471 121.674 728.95 119.5L526.08 -55.82C523.56 -57.9935 520.637 -59.6493 517.477 -60.6929C514.317 -61.7365 510.982 -62.1475 507.663 -61.9023C504.344 -61.6572 501.106 -60.7607 498.134 -59.2641C495.162 -57.7676 492.513 -55.7002 490.34 -53.18C485.952 -48.0907 483.764 -41.4674 484.257 -34.7656C484.75 -28.0638 487.884 -21.8321 492.97 -17.44L695.84 157.88C700.929 162.268 707.553 164.456 714.254 163.963C720.956 163.47 727.188 160.336 731.58 155.25Z" fill="url(#paint29_linear_1_200)"/>
<path d="M488 245.65C491.669 241.397 493.498 235.861 493.086 230.259C492.673 224.658 490.052 219.45 485.8 215.78L316.29 69.25C314.186 67.4324 311.744 66.0474 309.103 65.1742C306.463 64.301 303.677 63.9568 300.904 64.1611C298.131 64.3654 295.425 65.1143 292.942 66.365C290.458 67.6157 288.245 69.3436 286.43 71.45C282.761 75.7029 280.932 81.239 281.344 86.8406C281.757 92.4422 284.378 97.6505 288.63 101.32L458.14 247.85C460.245 249.666 462.687 251.05 465.327 251.923C467.967 252.795 470.753 253.139 473.526 252.935C476.298 252.731 479.004 251.982 481.487 250.732C483.971 249.482 486.184 247.755 488 245.65Z" fill="url(#paint30_linear_1_200)"/>
<path opacity="0.4" d="M341.13 187.29C343.305 184.771 344.963 181.848 346.008 178.689C347.053 175.529 347.465 172.194 347.221 168.875C346.977 165.556 346.081 162.317 344.585 159.345C343.088 156.372 341.021 153.723 338.5 151.55L135.66 -23.82C133.141 -25.9953 130.218 -27.6529 127.059 -28.6981C123.899 -29.7432 120.564 -30.1555 117.245 -29.9112C113.926 -29.667 110.687 -28.7711 107.715 -27.2746C104.742 -25.7782 102.093 -23.7106 99.92 -21.19C95.5312 -16.0991 93.343 -9.47408 93.8361 -2.77067C94.3292 3.93273 97.4634 10.1662 102.55 14.56L305.39 189.92C307.909 192.095 310.832 193.753 313.991 194.798C317.151 195.843 320.486 196.256 323.805 196.011C327.124 195.767 330.363 194.871 333.335 193.375C336.308 191.878 338.957 189.811 341.13 187.29Z" fill="url(#paint31_linear_1_200)"/>
<g opacity="0.3">
<path d="M601.1 218.46C600.837 217.405 600.892 216.297 601.259 215.274C601.626 214.251 602.287 213.359 603.16 212.712C604.033 212.064 605.078 211.69 606.164 211.636C607.249 211.582 608.326 211.851 609.259 212.409C610.192 212.966 610.938 213.788 611.405 214.77C611.871 215.751 612.036 216.849 611.879 217.925C611.722 219 611.249 220.005 610.522 220.812C609.794 221.619 608.843 222.193 607.79 222.46C607.088 222.638 606.358 222.676 605.641 222.571C604.925 222.467 604.236 222.221 603.614 221.85C602.992 221.478 602.45 220.987 602.019 220.406C601.588 219.824 601.275 219.163 601.1 218.46Z" fill="url(#paint32_linear_1_200)"/>
<g opacity="0.7">
<path d="M621.32 234.02C621.105 233.171 621.147 232.276 621.441 231.451C621.734 230.625 622.266 229.905 622.969 229.382C623.672 228.859 624.514 228.555 625.389 228.511C626.264 228.466 627.132 228.682 627.885 229.131C628.637 229.58 629.24 230.242 629.616 231.033C629.992 231.824 630.125 232.709 629.998 233.576C629.872 234.443 629.49 235.253 628.903 235.903C628.316 236.554 627.549 237.015 626.7 237.23C626.136 237.374 625.549 237.405 624.973 237.321C624.397 237.238 623.843 237.041 623.343 236.743C622.843 236.445 622.407 236.05 622.06 235.583C621.713 235.116 621.461 234.585 621.32 234.02Z" fill="url(#paint33_linear_1_200)"/>
</g>
<g opacity="0.4">
<path d="M641.54 249.58C641.378 248.936 641.411 248.258 641.635 247.632C641.858 247.006 642.262 246.461 642.795 246.065C643.329 245.668 643.967 245.439 644.631 245.406C645.295 245.373 645.953 245.537 646.523 245.878C647.094 246.219 647.55 246.722 647.835 247.322C648.119 247.922 648.22 248.594 648.123 249.251C648.026 249.908 647.737 250.522 647.291 251.015C646.846 251.508 646.264 251.858 645.62 252.02C645.192 252.129 644.746 252.153 644.309 252.089C643.872 252.025 643.451 251.876 643.072 251.649C642.693 251.422 642.362 251.123 642.099 250.768C641.836 250.413 641.646 250.009 641.54 249.58Z" fill="url(#paint34_linear_1_200)"/>
</g>
<g opacity="0.1">
<path d="M663.41 262.36C663.851 262.247 664.317 262.267 664.747 262.418C665.176 262.57 665.552 262.845 665.825 263.21C666.098 263.575 666.256 264.013 666.28 264.468C666.303 264.923 666.191 265.375 665.957 265.767C665.724 266.158 665.379 266.471 664.967 266.666C664.555 266.861 664.095 266.93 663.644 266.862C663.193 266.795 662.772 266.596 662.435 266.289C662.098 265.982 661.859 265.582 661.75 265.14C661.602 264.551 661.693 263.928 662.004 263.406C662.316 262.885 662.821 262.509 663.41 262.36Z" fill="url(#paint35_linear_1_200)"/>
</g>
</g>
<path d="M593.56 206.08C595.353 204.003 596.719 201.593 597.581 198.987C598.442 196.382 598.782 193.632 598.58 190.895C598.379 188.159 597.64 185.489 596.406 183.037C595.173 180.586 593.468 178.402 591.39 176.61L424.08 31.98C419.884 28.3777 414.43 26.5864 408.915 26.9988C403.4 27.4112 398.274 29.9937 394.66 34.18C392.867 36.2581 391.5 38.6691 390.638 41.2753C389.777 43.8815 389.437 46.632 389.639 49.3695C389.84 52.107 390.579 54.7781 391.813 57.2301C393.047 59.6821 394.752 61.867 396.83 63.66L564.09 208.26C566.168 210.053 568.579 211.418 571.184 212.279C573.79 213.139 576.54 213.478 579.277 213.276C582.013 213.073 584.683 212.334 587.134 211.099C589.585 209.864 591.769 208.159 593.56 206.08Z" fill="url(#paint36_linear_1_200)"/>
<path d="M722.58 136.25C724.756 133.73 726.413 130.807 727.459 127.646C728.504 124.486 728.916 121.15 728.672 117.83C728.428 114.51 727.532 111.271 726.035 108.297C724.539 105.324 722.471 102.674 719.95 100.5L517.08 -74.82C514.56 -76.9935 511.636 -78.6493 508.477 -79.6929C505.317 -80.7365 501.982 -81.1475 498.663 -80.9023C495.344 -80.6572 492.106 -79.7607 489.134 -78.2641C486.162 -76.7676 483.513 -74.7002 481.34 -72.18C476.952 -67.0907 474.764 -60.4674 475.257 -53.7656C475.75 -47.0638 478.884 -40.8321 483.97 -36.44L686.84 138.88C691.929 143.268 698.553 145.456 705.254 144.963C711.956 144.47 718.188 141.336 722.58 136.25Z" fill="url(#paint37_linear_1_200)"/>
<path d="M191.66 124.24C191.281 122.692 191.369 121.066 191.914 119.568C192.458 118.07 193.435 116.767 194.72 115.824C196.005 114.881 197.541 114.34 199.134 114.27C200.726 114.2 202.303 114.604 203.667 115.43C205.03 116.256 206.117 117.468 206.792 118.912C207.466 120.356 207.697 121.968 207.455 123.544C207.214 125.119 206.511 126.588 205.435 127.764C204.359 128.94 202.958 129.77 201.41 130.15C200.382 130.402 199.314 130.45 198.267 130.289C197.221 130.129 196.216 129.764 195.311 129.215C194.405 128.666 193.617 127.944 192.99 127.091C192.364 126.237 191.912 125.268 191.66 124.24Z" fill="url(#paint38_linear_1_200)"/>
<g opacity="0.78">
<path d="M224.23 150.18C223.895 148.857 223.961 147.465 224.419 146.18C224.876 144.894 225.705 143.774 226.801 142.96C227.896 142.146 229.208 141.676 230.571 141.609C231.934 141.542 233.286 141.881 234.456 142.583C235.625 143.285 236.56 144.319 237.142 145.553C237.724 146.787 237.926 148.167 237.723 149.516C237.52 150.865 236.921 152.124 236.002 153.132C235.083 154.14 233.885 154.853 232.56 155.18C230.792 155.619 228.923 155.339 227.362 154.402C225.8 153.464 224.674 151.946 224.23 150.18Z" fill="url(#paint39_linear_1_200)"/>
</g>
<g opacity="0.55">
<path d="M256.76 176.18C256.492 175.083 256.555 173.932 256.942 172.871C257.328 171.81 258.02 170.888 258.931 170.22C259.841 169.553 260.929 169.17 262.057 169.121C263.185 169.071 264.302 169.357 265.267 169.943C266.233 170.528 267.003 171.386 267.481 172.409C267.958 173.432 268.122 174.574 267.951 175.69C267.78 176.806 267.282 177.846 266.52 178.679C265.758 179.512 264.766 180.1 263.67 180.37C262.941 180.549 262.184 180.583 261.442 180.469C260.7 180.356 259.988 180.097 259.346 179.708C258.704 179.318 258.146 178.807 257.702 178.201C257.258 177.596 256.938 176.909 256.76 176.18Z" fill="url(#paint40_linear_1_200)"/>
</g>
<g opacity="0.33">
<path d="M289.29 202.12C289.075 201.248 289.123 200.332 289.428 199.487C289.733 198.642 290.283 197.907 291.006 197.375C291.729 196.842 292.594 196.536 293.492 196.496C294.389 196.455 295.278 196.681 296.047 197.146C296.815 197.611 297.429 198.293 297.809 199.107C298.19 199.92 298.321 200.828 298.185 201.716C298.05 202.604 297.654 203.432 297.048 204.095C296.441 204.758 295.652 205.226 294.78 205.44C294.201 205.583 293.6 205.611 293.011 205.522C292.422 205.433 291.856 205.228 291.346 204.919C290.836 204.611 290.392 204.205 290.039 203.725C289.686 203.244 289.432 202.699 289.29 202.12Z" fill="url(#paint41_linear_1_200)"/>
</g>
<g opacity="0.1">
<path d="M324.29 224C324.938 223.841 325.618 223.877 326.245 224.105C326.871 224.333 327.416 224.741 327.811 225.279C328.206 225.816 328.432 226.459 328.461 227.125C328.49 227.791 328.321 228.451 327.975 229.021C327.629 229.591 327.122 230.046 326.518 230.327C325.913 230.609 325.239 230.705 324.58 230.603C323.921 230.501 323.307 230.206 322.815 229.755C322.324 229.304 321.978 228.718 321.82 228.07C321.609 227.203 321.75 226.287 322.213 225.524C322.676 224.761 323.423 224.213 324.29 224Z" fill="url(#paint42_linear_1_200)"/>
</g>
<path d="M183.66 111.49C185.509 109.356 186.919 106.879 187.809 104.199C188.698 101.519 189.05 98.69 188.844 95.874C188.638 93.058 187.877 90.3104 186.607 87.7889C185.336 85.2673 183.58 83.0214 181.44 81.18L9.59999 -67.33C7.46588 -69.1729 4.98951 -70.5772 2.3124 -71.4626C-0.3647 -72.348 -3.19004 -72.6971 -6.00214 -72.49C-8.81424 -72.2829 -11.558 -71.5236 -14.0765 -70.2556C-16.595 -68.9876 -18.8389 -67.2357 -20.68 -65.1C-24.3969 -60.7877 -26.2499 -55.1762 -25.8317 -49.4985C-25.4136 -43.8207 -22.7586 -38.5412 -18.45 -34.82L153.4 113.73C157.71 117.445 163.319 119.295 168.994 118.875C174.668 118.455 179.944 115.799 183.66 111.49Z" fill="url(#paint43_linear_1_200)"/>
<g opacity="0.3">
<path d="M138.16 220.65C137.781 219.102 137.869 217.476 138.414 215.978C138.958 214.48 139.935 213.177 141.22 212.234C142.505 211.291 144.041 210.75 145.634 210.68C147.226 210.61 148.803 211.014 150.167 211.84C151.53 212.666 152.617 213.878 153.292 215.322C153.966 216.766 154.197 218.378 153.955 219.954C153.714 221.529 153.011 222.998 151.935 224.174C150.859 225.35 149.458 226.18 147.91 226.56C146.882 226.812 145.814 226.86 144.767 226.699C143.721 226.539 142.716 226.174 141.811 225.625C140.905 225.076 140.117 224.354 139.49 223.501C138.864 222.647 138.412 221.678 138.16 220.65Z" fill="url(#paint44_linear_1_200)"/>
<g opacity="0.78">
<path d="M170.66 246.61C170.325 245.287 170.391 243.895 170.849 242.61C171.306 241.324 172.135 240.204 173.231 239.39C174.326 238.576 175.638 238.106 177.001 238.039C178.364 237.972 179.716 238.311 180.886 239.013C182.055 239.715 182.99 240.749 183.572 241.983C184.154 243.217 184.356 244.597 184.153 245.946C183.95 247.295 183.351 248.554 182.432 249.562C181.513 250.57 180.315 251.283 178.99 251.61C177.222 252.049 175.353 251.769 173.792 250.832C172.23 249.894 171.104 248.376 170.66 246.61Z" fill="url(#paint45_linear_1_200)"/>
</g>
<g opacity="0.55">
<path d="M203.22 272.57C202.952 271.473 203.015 270.322 203.402 269.261C203.788 268.2 204.48 267.278 205.391 266.61C206.301 265.943 207.389 265.56 208.517 265.511C209.645 265.461 210.762 265.747 211.727 266.333C212.693 266.918 213.463 267.776 213.941 268.799C214.418 269.822 214.582 270.964 214.411 272.08C214.24 273.196 213.742 274.236 212.98 275.069C212.218 275.902 211.226 276.49 210.13 276.76C209.401 276.939 208.644 276.973 207.902 276.859C207.16 276.746 206.448 276.487 205.806 276.098C205.164 275.708 204.606 275.197 204.162 274.591C203.718 273.986 203.398 273.299 203.22 272.57Z" fill="url(#paint46_linear_1_200)"/>
</g>
<g opacity="0.33">
<path d="M235.75 298.53C235.534 297.658 235.583 296.742 235.888 295.897C236.193 295.052 236.743 294.317 237.466 293.785C238.189 293.252 239.054 292.946 239.952 292.906C240.849 292.865 241.738 293.091 242.507 293.556C243.275 294.021 243.889 294.703 244.269 295.517C244.65 296.33 244.781 297.238 244.645 298.126C244.51 299.014 244.114 299.842 243.508 300.505C242.901 301.168 242.112 301.636 241.24 301.85C240.072 302.137 238.837 301.948 237.808 301.326C236.779 300.703 236.039 299.698 235.75 298.53Z" fill="url(#paint47_linear_1_200)"/>
</g>
<g opacity="0.1">
<path d="M270.75 320.41C271.398 320.251 272.078 320.287 272.705 320.515C273.331 320.743 273.876 321.151 274.271 321.689C274.666 322.226 274.892 322.869 274.921 323.535C274.95 324.201 274.781 324.861 274.435 325.431C274.089 326.001 273.582 326.456 272.978 326.737C272.373 327.019 271.699 327.115 271.04 327.013C270.381 326.911 269.767 326.616 269.275 326.165C268.784 325.714 268.438 325.128 268.28 324.48C268.069 323.613 268.21 322.697 268.673 321.934C269.136 321.171 269.883 320.623 270.75 320.41Z" fill="url(#paint48_linear_1_200)"/>
</g>
</g>
<path d="M130.2 204.33C131.977 202.271 133.331 199.882 134.184 197.3C135.038 194.717 135.374 191.992 135.175 189.28C134.975 186.567 134.243 183.921 133.021 181.491C131.798 179.062 130.109 176.897 128.05 175.12L-37.76 31.79C-39.8191 30.0132 -42.208 28.6593 -44.7904 27.8057C-47.3727 26.9521 -50.0979 26.6156 -52.8103 26.8152C-55.5227 27.0149 -58.1693 27.7468 -60.5988 28.9693C-63.0283 30.1918 -65.1933 31.8808 -66.97 33.94C-68.7502 36.0004 -70.1068 38.3915 -70.9623 40.9766C-71.8178 43.5617 -72.1553 46.29 -71.9556 49.0056C-71.7559 51.7212 -71.023 54.3709 -69.7986 56.803C-68.5742 59.2352 -66.8824 61.4021 -64.82 63.18L100.99 206.49C103.05 208.266 105.439 209.619 108.022 210.472C110.605 211.325 113.33 211.661 116.042 211.46C118.755 211.259 121.401 210.527 123.83 209.303C126.26 208.08 128.424 206.39 130.2 204.33Z" fill="url(#paint49_linear_1_200)"/>
<path d="M280.39 261.25C282.703 258.572 284.465 255.464 285.576 252.104C286.687 248.745 287.125 245.199 286.865 241.67C286.605 238.141 285.652 234.697 284.061 231.537C282.469 228.376 280.27 225.56 277.59 223.25L62 36.89C59.3223 34.5759 56.2147 32.8125 52.8548 31.7007C49.495 30.5888 45.9489 30.1504 42.4194 30.4105C38.8899 30.6705 35.4464 31.624 32.2858 33.2163C29.1251 34.8086 26.3095 37.0084 24 39.69C21.6871 42.3682 19.9248 45.476 18.8137 48.8357C17.7026 52.1954 17.2646 55.7412 17.5246 59.2703C17.7846 62.7994 18.7377 66.2427 20.3292 69.4032C21.9207 72.5638 24.1195 75.3797 26.8 77.69L242.41 264.05C247.818 268.715 254.857 271.041 261.98 270.515C269.102 269.99 275.725 266.657 280.39 261.25Z" fill="url(#paint50_linear_1_200)"/>
<path opacity="0.3" d="M302.89 296.03C305.063 293.51 306.719 290.587 307.763 287.427C308.807 284.267 309.217 280.932 308.972 277.613C308.727 274.294 307.831 271.056 306.334 268.084C304.838 265.112 302.77 262.463 300.25 260.29L97.39 84.92C92.3 80.5361 85.6781 78.3518 78.9787 78.8468C72.2794 79.3418 66.0504 82.4756 61.66 87.56C59.4865 90.08 57.8307 93.0035 56.7871 96.1635C55.7435 99.3234 55.3325 102.658 55.5776 105.977C55.8228 109.296 56.7193 112.534 58.2158 115.506C59.7124 118.478 61.7798 121.127 64.3 123.3L267.14 298.67C272.231 303.06 278.857 305.248 285.562 304.753C292.266 304.258 298.499 301.12 302.89 296.03Z" fill="url(#paint51_linear_1_200)"/>
<path d="M196.54 186.85C200.667 182.052 202.723 175.814 202.258 169.503C201.793 163.191 198.845 157.322 194.06 153.18L2.72998 -12.25C-2.07011 -16.389 -8.31725 -18.4528 -14.6384 -17.9878C-20.9595 -17.5228 -26.8373 -14.5669 -30.98 -9.76996C-35.1197 -4.96821 -37.1837 1.28054 -36.7187 7.6033C-36.2537 13.9261 -33.2976 19.8056 -28.5 23.95L162.83 189.34C165.207 191.39 167.964 192.952 170.945 193.936C173.925 194.921 177.07 195.308 180.201 195.077C183.331 194.846 186.385 194 189.189 192.589C191.992 191.177 194.49 189.227 196.54 186.85Z" fill="url(#paint52_linear_1_200)"/>
<path d="M180.14 329.5C182.315 326.981 183.973 324.058 185.018 320.899C186.063 317.739 186.475 314.404 186.231 311.085C185.987 307.766 185.091 304.527 183.595 301.555C182.098 298.582 180.031 295.933 177.51 293.76L-25.34 118.39C-27.86 116.217 -30.7835 114.561 -33.9435 113.517C-37.1034 112.473 -40.438 112.063 -43.7568 112.308C-47.0756 112.553 -50.3136 113.449 -53.2859 114.946C-56.2583 116.442 -58.9067 118.51 -61.08 121.03C-65.4682 126.119 -67.6562 132.743 -67.163 139.444C-66.6699 146.146 -63.5359 152.378 -58.45 156.77L144.4 332.18C146.923 334.351 149.848 336.004 153.009 337.044C156.171 338.085 159.506 338.492 162.825 338.243C166.144 337.994 169.381 337.094 172.352 335.594C175.323 334.094 177.969 332.023 180.14 329.5Z" fill="url(#paint53_linear_1_200)"/>
<path d="M344.91 73.46C344.531 71.9118 344.619 70.286 345.164 68.788C345.708 67.29 346.685 65.9872 347.97 65.0442C349.255 64.1012 350.791 63.5604 352.384 63.4902C353.976 63.42 355.553 63.8235 356.916 64.6498C358.28 65.476 359.367 66.6879 360.041 68.1321C360.716 69.5764 360.947 71.1881 360.705 72.7637C360.464 74.3392 359.761 75.8078 358.685 76.9837C357.609 78.1596 356.208 78.99 354.66 79.37C353.632 79.6224 352.564 79.6698 351.517 79.5093C350.471 79.3489 349.466 78.9838 348.561 78.435C347.655 77.8862 346.867 77.1643 346.24 76.3107C345.614 75.4571 345.162 74.4884 344.91 73.46Z" fill="url(#paint54_linear_1_200)"/>
<g opacity="0.78">
<path d="M377.44 99.42C377.115 98.0964 377.19 96.7062 377.655 95.4252C378.121 94.1442 378.956 93.03 380.054 92.2235C381.153 91.417 382.466 90.9545 383.827 90.8944C385.189 90.8343 386.538 91.1793 387.703 91.8858C388.869 92.5924 389.798 93.6287 390.375 94.8636C390.951 96.0986 391.148 97.4768 390.941 98.8239C390.735 100.171 390.133 101.426 389.212 102.431C388.292 103.436 387.094 104.146 385.77 104.47C384.891 104.686 383.979 104.727 383.084 104.591C382.19 104.454 381.331 104.142 380.557 103.673C379.784 103.204 379.11 102.587 378.575 101.857C378.04 101.127 377.654 100.299 377.44 99.42Z" fill="url(#paint55_linear_1_200)"/>
</g>
<g opacity="0.55">
<path d="M409.97 125.38C409.702 124.283 409.765 123.132 410.152 122.071C410.538 121.01 411.23 120.088 412.141 119.42C413.051 118.753 414.139 118.37 415.267 118.321C416.395 118.271 417.512 118.557 418.477 119.143C419.443 119.728 420.213 120.586 420.691 121.609C421.168 122.632 421.332 123.774 421.161 124.89C420.99 126.006 420.492 127.046 419.73 127.879C418.968 128.712 417.976 129.301 416.88 129.57C416.151 129.749 415.394 129.783 414.652 129.669C413.91 129.556 413.198 129.297 412.556 128.908C411.915 128.518 411.356 128.007 410.912 127.401C410.468 126.796 410.148 126.109 409.97 125.38Z" fill="url(#paint56_linear_1_200)"/>
</g>
<g opacity="0.33">
<path d="M442.5 151.34C442.285 150.468 442.333 149.552 442.638 148.707C442.943 147.862 443.493 147.127 444.216 146.595C444.939 146.062 445.804 145.756 446.702 145.716C447.599 145.675 448.488 145.901 449.257 146.366C450.025 146.831 450.639 147.513 451.02 148.327C451.4 149.14 451.531 150.048 451.395 150.936C451.26 151.824 450.864 152.652 450.258 153.315C449.651 153.978 448.862 154.446 447.99 154.66C447.411 154.803 446.81 154.831 446.221 154.742C445.632 154.653 445.066 154.448 444.556 154.139C444.046 153.831 443.602 153.425 443.249 152.945C442.896 152.464 442.642 151.919 442.5 151.34Z" fill="url(#paint57_linear_1_200)"/>
</g>
<g opacity="0.1">
<path d="M477.5 173.18C478.148 173.021 478.828 173.057 479.455 173.285C480.081 173.513 480.626 173.921 481.021 174.459C481.416 174.996 481.642 175.639 481.671 176.305C481.7 176.971 481.531 177.631 481.185 178.201C480.839 178.771 480.332 179.226 479.728 179.507C479.123 179.789 478.449 179.885 477.79 179.783C477.131 179.681 476.517 179.386 476.025 178.935C475.534 178.484 475.188 177.898 475.03 177.25C474.819 176.383 474.96 175.467 475.423 174.704C475.886 173.941 476.633 173.393 477.5 173.18Z" fill="url(#paint58_linear_1_200)"/>
</g>
<path d="M327.44 51.27C329.616 48.7504 331.273 45.8267 332.319 42.6662C333.364 39.5056 333.776 36.1701 333.532 32.8501C333.288 29.5301 332.392 26.2908 330.895 23.3173C329.399 20.3437 327.331 17.6941 324.81 15.52L121.94 -159.82C119.42 -161.993 116.496 -163.649 113.337 -164.693C110.177 -165.737 106.842 -166.147 103.523 -165.902C100.204 -165.657 96.9664 -164.761 93.994 -163.264C91.0217 -161.768 88.3733 -159.7 86.2 -157.18C84.0259 -154.661 82.3693 -151.738 81.3249 -148.578C80.2805 -145.418 79.8686 -142.084 80.1128 -138.765C80.357 -135.447 81.2526 -132.208 82.7483 -129.236C84.2439 -126.263 86.3105 -123.614 88.83 -121.44L291.66 53.9C294.181 56.079 297.107 57.7395 300.27 58.7867C303.433 59.8339 306.772 60.2472 310.095 60.003C313.418 59.7587 316.661 58.8617 319.637 57.3632C322.613 55.8647 325.265 53.7942 327.44 51.27Z" fill="url(#paint59_linear_1_200)"/>
</g>
<g style="mix-blend-mode:color">
<rect x="-94" y="-114" width="981" height="687" fill="#30A349"/>
</g>
<rect x="-94" y="-114" width="981" height="687" fill="#30A349" fill-opacity="0.71"/>
</g>
<defs>
<linearGradient id="paint0_linear_1_200" x1="590.02" y1="600.78" x2="657.73" y2="393.8" gradientUnits="userSpaceOnUse">
<stop offset="0.01" stop-color="#74276C" stop-opacity="0"/>
<stop offset="0.41" stop-color="#C53364" stop-opacity="0"/>
<stop offset="1" stop-color="#FE8164"/>
</linearGradient>
<linearGradient id="paint1_linear_1_200" x1="395.86" y1="549.257" x2="473.879" y2="364.761" gradientUnits="userSpaceOnUse">
<stop offset="0.01" stop-color="#74276C" stop-opacity="0"/>
<stop offset="0.41" stop-color="#C53364" stop-opacity="0"/>
<stop offset="1" stop-color="#FE8164"/>
</linearGradient>
<linearGradient id="paint2_linear_1_200" x1="349.007" y1="570.466" x2="438.933" y2="357.814" gradientUnits="userSpaceOnUse">
<stop offset="0.01" stop-color="#74276C" stop-opacity="0"/>
<stop offset="0.41" stop-color="#C53364" stop-opacity="0"/>
<stop offset="1" stop-color="#FE8164"/>
</linearGradient>
<linearGradient id="paint3_linear_1_200" x1="311.967" y1="568.48" x2="405.865" y2="346.441" gradientUnits="userSpaceOnUse">
<stop offset="0.01" stop-color="#74276C" stop-opacity="0"/>
<stop offset="0.41" stop-color="#C53364" stop-opacity="0"/>
<stop offset="1" stop-color="#FE8164"/>
</linearGradient>
<linearGradient id="paint4_linear_1_200" x1="284.738" y1="543.298" x2="374.662" y2="330.636" gradientUnits="userSpaceOnUse">
<stop offset="0.01" stop-color="#74276C" stop-opacity="0"/>
<stop offset="0.41" stop-color="#C53364" stop-opacity="0"/>
<stop offset="1" stop-color="#FE8164"/>
</linearGradient>
<linearGradient id="paint5_linear_1_200" x1="267.326" y1="494.898" x2="345.345" y2="310.402" gradientUnits="userSpaceOnUse">
<stop offset="0.01" stop-color="#74276C" stop-opacity="0"/>
<stop offset="0.41" stop-color="#C53364" stop-opacity="0"/>
<stop offset="1" stop-color="#FE8164"/>
</linearGradient>
<linearGradient id="paint6_linear_1_200" x1="643.2" y1="537.65" x2="387.4" y2="312.47" gradientUnits="userSpaceOnUse">
<stop stop-color="#511C4F"/>
<stop offset="0.53" stop-color="#C53364"/>
<stop offset="0.54" stop-color="#C83764"/>
<stop offset="0.67" stop-color="#DF5764"/>
<stop offset="0.79" stop-color="#F06E64"/>
<stop offset="0.9" stop-color="#FA7C64"/>
<stop offset="1" stop-color="#FE8164"/>
</linearGradient>
<linearGradient id="paint7_linear_1_200" x1="731.36" y1="524.3" x2="523.47" y2="332.1" gradientUnits="userSpaceOnUse">
<stop offset="0.01" stop-color="#74276C" stop-opacity="0"/>
<stop offset="0.41" stop-color="#C53364" stop-opacity="0"/>
<stop offset="1" stop-color="#FE8164"/>
</linearGradient>
<linearGradient id="paint8_linear_1_200" x1="582.96" y1="569.88" x2="334.64" y2="340.3" gradientUnits="userSpaceOnUse">
<stop offset="0.01" stop-color="#74276C" stop-opacity="0"/>
<stop offset="0.41" stop-color="#C53364" stop-opacity="0"/>
<stop offset="1" stop-color="#FE8164"/>
</linearGradient>
<linearGradient id="paint9_linear_1_200" x1="319.287" y1="564.556" x2="374.367" y2="442.704" gradientUnits="userSpaceOnUse">
<stop offset="0.01" stop-color="#74276C" stop-opacity="0"/>
<stop offset="0.41" stop-color="#C53364" stop-opacity="0"/>
<stop offset="1" stop-color="#FE8164"/>
</linearGradient>
<linearGradient id="paint10_linear_1_200" x1="287.678" y1="577.955" x2="351.163" y2="437.507" gradientUnits="userSpaceOnUse">
<stop offset="0.01" stop-color="#74276C" stop-opacity="0"/>
<stop offset="0.41" stop-color="#C53364" stop-opacity="0"/>
<stop offset="1" stop-color="#FE8164"/>
</linearGradient>
<linearGradient id="paint11_linear_1_200" x1="262.989" y1="576.026" x2="329.277" y2="429.373" gradientUnits="userSpaceOnUse">
<stop offset="0.01" stop-color="#74276C" stop-opacity="0"/>
<stop offset="0.41" stop-color="#C53364" stop-opacity="0"/>
<stop offset="1" stop-color="#FE8164"/>
</linearGradient>
<linearGradient id="paint12_linear_1_200" x1="245.231" y1="558.767" x2="308.715" y2="418.319" gradientUnits="userSpaceOnUse">
<stop offset="0.01" stop-color="#74276C" stop-opacity="0"/>
<stop offset="0.41" stop-color="#C53364" stop-opacity="0"/>
<stop offset="1" stop-color="#FE8164"/>
</linearGradient>
<linearGradient id="paint13_linear_1_200" x1="234.396" y1="526.19" x2="289.475" y2="404.338" gradientUnits="userSpaceOnUse">
<stop offset="0.01" stop-color="#74276C" stop-opacity="0"/>
<stop offset="0.41" stop-color="#C53364" stop-opacity="0"/>
<stop offset="1" stop-color="#FE8164"/>
</linearGradient>
<linearGradient id="paint14_linear_1_200" x1="570.81" y1="635.92" x2="360.06" y2="441.08" gradientUnits="userSpaceOnUse">
<stop offset="0.01" stop-color="#74276C" stop-opacity="0"/>
<stop offset="0.41" stop-color="#C53364" stop-opacity="0"/>
<stop offset="1" stop-color="#FE8164"/>
</linearGradient>
<linearGradient id="paint15_linear_1_200" x1="830.38" y1="386.93" x2="611.59" y2="193.28" gradientUnits="userSpaceOnUse">
<stop offset="0.01" stop-color="#74276C" stop-opacity="0"/>
<stop offset="0.41" stop-color="#C53364" stop-opacity="0"/>
<stop offset="1" stop-color="#FE8164"/>
</linearGradient>
<linearGradient id="paint16_linear_1_200" x1="815.96" y1="457.82" x2="560.16" y2="232.64" gradientUnits="userSpaceOnUse">
<stop stop-color="#511C4F"/>
<stop offset="0.53" stop-color="#C53364"/>
<stop offset="0.54" stop-color="#C83764"/>
<stop offset="0.67" stop-color="#DF5764"/>
<stop offset="0.79" stop-color="#F06E64"/>
<stop offset="0.9" stop-color="#FA7C64"/>
<stop offset="1" stop-color="#FE8164"/>
</linearGradient>
<linearGradient id="paint17_linear_1_200" x1="573.827" y1="469.078" x2="632.991" y2="330.977" gradientUnits="userSpaceOnUse">
<stop offset="0.01" stop-color="#74276C" stop-opacity="0"/>
<stop offset="0.41" stop-color="#C53364" stop-opacity="0"/>
<stop offset="1" stop-color="#FE8164"/>
</linearGradient>
<linearGradient id="paint18_linear_1_200" x1="538.608" y1="484.829" x2="606.808" y2="325.65" gradientUnits="userSpaceOnUse">
<stop offset="0.01" stop-color="#74276C" stop-opacity="0"/>
<stop offset="0.41" stop-color="#C53364" stop-opacity="0"/>
<stop offset="1" stop-color="#FE8164"/>
</linearGradient>
<linearGradient id="paint19_linear_1_200" x1="510.835" y1="483.208" x2="582.04" y2="317.005" gradientUnits="userSpaceOnUse">
<stop offset="0.01" stop-color="#74276C" stop-opacity="0"/>
<stop offset="0.41" stop-color="#C53364" stop-opacity="0"/>
<stop offset="1" stop-color="#FE8164"/>
</linearGradient>
<linearGradient id="paint20_linear_1_200" x1="490.501" y1="464.218" x2="558.702" y2="305.039" gradientUnits="userSpaceOnUse">
<stop offset="0.01" stop-color="#74276C" stop-opacity="0"/>
<stop offset="0.41" stop-color="#C53364" stop-opacity="0"/>
<stop offset="1" stop-color="#FE8164"/>
</linearGradient>
<linearGradient id="paint21_linear_1_200" x1="477.613" y1="427.857" x2="536.777" y2="289.756" gradientUnits="userSpaceOnUse">
<stop offset="0.01" stop-color="#74276C" stop-opacity="0"/>
<stop offset="0.41" stop-color="#C53364" stop-opacity="0"/>
<stop offset="1" stop-color="#FE8164"/>
</linearGradient>
<linearGradient id="paint22_linear_1_200" x1="798.34" y1="508.41" x2="579.54" y2="314.76" gradientUnits="userSpaceOnUse">
<stop offset="0.01" stop-color="#74276C" stop-opacity="0"/>
<stop offset="0.41" stop-color="#C53364" stop-opacity="0"/>
<stop offset="1" stop-color="#FE8164"/>
</linearGradient>
<linearGradient id="paint23_linear_1_200" x1="40.35" y1="252.28" x2="275.17" y2="469.37" gradientUnits="userSpaceOnUse">
<stop offset="0.01" stop-color="#74276C" stop-opacity="0"/>
<stop offset="0.41" stop-color="#C53364" stop-opacity="0"/>
<stop offset="1" stop-color="#FE8164"/>
</linearGradient>
<linearGradient id="paint24_linear_1_200" x1="-248.68" y1="333.3" x2="274.83" y2="333.3" gradientUnits="userSpaceOnUse">
<stop offset="0.01" stop-color="#74276C" stop-opacity="0"/>
<stop offset="0.41" stop-color="#C53364" stop-opacity="0"/>
<stop offset="1" stop-color="#FE8164"/>
</linearGradient>
<linearGradient id="paint25_linear_1_200" x1="255.3" y1="635.44" x2="17.25" y2="415.36" gradientUnits="userSpaceOnUse">
<stop offset="0.01" stop-color="#74276C" stop-opacity="0"/>
<stop offset="0.41" stop-color="#C53364" stop-opacity="0"/>
<stop offset="1" stop-color="#FE8164"/>
</linearGradient>
<linearGradient id="paint26_linear_1_200" x1="305.16" y1="582.18" x2="58.03" y2="363.45" gradientUnits="userSpaceOnUse">
<stop offset="0.01" stop-color="#74276C" stop-opacity="0"/>
<stop offset="0.41" stop-color="#C53364" stop-opacity="0"/>
<stop offset="1" stop-color="#FE8164"/>
</linearGradient>
<linearGradient id="paint27_linear_1_200" x1="417.35" y1="-179.27" x2="546.16" y2="214.55" gradientUnits="userSpaceOnUse">
<stop offset="0.01" stop-color="#74276C" stop-opacity="0"/>
<stop offset="0.41" stop-color="#C53364" stop-opacity="0"/>
<stop offset="1" stop-color="#FE8164"/>
</linearGradient>
<linearGradient id="paint28_linear_1_200" x1="438.88" y1="-21.78" x2="719.36" y2="237.54" gradientUnits="userSpaceOnUse">
<stop offset="0.01" stop-color="#74276C" stop-opacity="0"/>
<stop offset="0.41" stop-color="#C53364" stop-opacity="0"/>
<stop offset="1" stop-color="#FE8164"/>
</linearGradient>
<linearGradient id="paint29_linear_1_200" x1="564.7" y1="10.06" x2="811.83" y2="228.79" gradientUnits="userSpaceOnUse">
<stop offset="0.01" stop-color="#74276C" stop-opacity="0"/>
<stop offset="0.41" stop-color="#C53364" stop-opacity="0"/>
<stop offset="1" stop-color="#FE8164"/>
</linearGradient>
<linearGradient id="paint30_linear_1_200" x1="276.73" y1="56.4" x2="511.54" y2="273.49" gradientUnits="userSpaceOnUse">
<stop offset="0.01" stop-color="#74276C" stop-opacity="0"/>
<stop offset="0.41" stop-color="#C53364" stop-opacity="0"/>
<stop offset="1" stop-color="#FE8164"/>
</linearGradient>
<linearGradient id="paint31_linear_1_200" x1="174.25" y1="42.11" x2="421.38" y2="260.83" gradientUnits="userSpaceOnUse">
<stop offset="0.01" stop-color="#74276C" stop-opacity="0"/>
<stop offset="0.41" stop-color="#C53364" stop-opacity="0"/>
<stop offset="1" stop-color="#FE8164"/>
</linearGradient>
<linearGradient id="paint32_linear_1_200" x1="645.756" y1="96.9674" x2="583.789" y2="238.55" gradientUnits="userSpaceOnUse">
<stop offset="0.01" stop-color="#74276C" stop-opacity="0"/>
<stop offset="0.41" stop-color="#C53364" stop-opacity="0"/>
<stop offset="1" stop-color="#FE8164"/>
</linearGradient>
<linearGradient id="paint33_linear_1_200" x1="682.901" y1="71.9186" x2="609.723" y2="239.117" gradientUnits="userSpaceOnUse">
<stop offset="0.01" stop-color="#74276C" stop-opacity="0"/>
<stop offset="0.41" stop-color="#C53364" stop-opacity="0"/>
<stop offset="1" stop-color="#FE8164"/>
</linearGradient>
<linearGradient id="paint34_linear_1_200" x1="706.193" y1="78.5256" x2="633.006" y2="245.726" gradientUnits="userSpaceOnUse">
<stop offset="0.01" stop-color="#74276C" stop-opacity="0"/>
<stop offset="0.41" stop-color="#C53364" stop-opacity="0"/>
<stop offset="1" stop-color="#FE8164"/>
</linearGradient>
<linearGradient id="paint35_linear_1_200" x1="715.62" y1="116.79" x2="653.643" y2="258.375" gradientUnits="userSpaceOnUse">
<stop offset="0.01" stop-color="#74276C" stop-opacity="0"/>
<stop offset="0.41" stop-color="#C53364" stop-opacity="0"/>
<stop offset="1" stop-color="#FE8164"/>
</linearGradient>
<linearGradient id="paint36_linear_1_200" x1="410.33" y1="46.39" x2="699.27" y2="300.74" gradientUnits="userSpaceOnUse">
<stop stop-color="#511C4F"/>
<stop offset="0.53" stop-color="#C53364"/>
<stop offset="0.54" stop-color="#C83764"/>
<stop offset="0.67" stop-color="#DF5764"/>
<stop offset="0.79" stop-color="#F06E64"/>
<stop offset="0.9" stop-color="#FA7C64"/>
<stop offset="1" stop-color="#FE8164"/>
</linearGradient>
<linearGradient id="paint37_linear_1_200" x1="555.7" y1="-8.93999" x2="802.83" y2="209.79" gradientUnits="userSpaceOnUse">
<stop stop-color="#74276C"/>
<stop offset="0.3" stop-color="#C53364"/>
<stop offset="0.32" stop-color="#C83764"/>
<stop offset="0.51" stop-color="#DF5764"/>
<stop offset="0.69" stop-color="#F06E64"/>
<stop offset="0.85" stop-color="#FA7C64"/>
<stop offset="1" stop-color="#FE8164"/>
</linearGradient>
<linearGradient id="paint38_linear_1_200" x1="283.794" y1="-64.264" x2="190.594" y2="141.926" gradientUnits="userSpaceOnUse">
<stop offset="0.01" stop-color="#74276C" stop-opacity="0"/>
<stop offset="0.41" stop-color="#C53364" stop-opacity="0"/>
<stop offset="1" stop-color="#FE8164"/>
</linearGradient>
<linearGradient id="paint39_linear_1_200" x1="337.285" y1="-86.9379" x2="229.868" y2="150.731" gradientUnits="userSpaceOnUse">
<stop offset="0.01" stop-color="#74276C" stop-opacity="0"/>
<stop offset="0.41" stop-color="#C53364" stop-opacity="0"/>
<stop offset="1" stop-color="#FE8164"/>
</linearGradient>
<linearGradient id="paint40_linear_1_200" x1="379.064" y1="-83.6683" x2="266.896" y2="164.483" gradientUnits="userSpaceOnUse">
<stop offset="0.01" stop-color="#74276C" stop-opacity="0"/>
<stop offset="0.41" stop-color="#C53364" stop-opacity="0"/>
<stop offset="1" stop-color="#FE8164"/>
</linearGradient>
<linearGradient id="paint41_linear_1_200" x1="409.117" y1="-54.4728" x2="301.69" y2="183.198" gradientUnits="userSpaceOnUse">
<stop offset="0.01" stop-color="#74276C" stop-opacity="0"/>
<stop offset="0.41" stop-color="#C53364" stop-opacity="0"/>
<stop offset="1" stop-color="#FE8164"/>
</linearGradient>
<linearGradient id="paint42_linear_1_200" x1="427.446" y1="0.659297" x2="334.248" y2="206.859" gradientUnits="userSpaceOnUse">
<stop offset="0.01" stop-color="#74276C" stop-opacity="0"/>
<stop offset="0.41" stop-color="#C53364" stop-opacity="0"/>
<stop offset="1" stop-color="#FE8164"/>
</linearGradient>
<linearGradient id="paint43_linear_1_200" x1="-30.51" y1="-80.36" x2="207.54" y2="139.72" gradientUnits="userSpaceOnUse">
<stop offset="0.01" stop-color="#74276C" stop-opacity="0"/>
<stop offset="0.41" stop-color="#C53364" stop-opacity="0"/>
<stop offset="1" stop-color="#FE8164"/>
</linearGradient>
<linearGradient id="paint44_linear_1_200" x1="230.243" y1="32.1434" x2="137.045" y2="238.343" gradientUnits="userSpaceOnUse">
<stop offset="0.01" stop-color="#74276C" stop-opacity="0"/>
<stop offset="0.41" stop-color="#C53364" stop-opacity="0"/>
<stop offset="1" stop-color="#FE8164"/>
</linearGradient>
<linearGradient id="paint45_linear_1_200" x1="283.745" y1="9.4772" x2="176.317" y2="247.138" gradientUnits="userSpaceOnUse">
<stop offset="0.01" stop-color="#74276C" stop-opacity="0"/>
<stop offset="0.41" stop-color="#C53364" stop-opacity="0"/>
<stop offset="1" stop-color="#FE8164"/>
</linearGradient>
<linearGradient id="paint46_linear_1_200" x1="325.512" y1="12.7397" x2="213.347" y2="260.9" gradientUnits="userSpaceOnUse">
<stop offset="0.01" stop-color="#74276C" stop-opacity="0"/>
<stop offset="0.41" stop-color="#C53364" stop-opacity="0"/>
<stop offset="1" stop-color="#FE8164"/>
</linearGradient>
<linearGradient id="paint47_linear_1_200" x1="355.565" y1="41.9345" x2="248.149" y2="279.603" gradientUnits="userSpaceOnUse">
<stop offset="0.01" stop-color="#74276C" stop-opacity="0"/>
<stop offset="0.41" stop-color="#C53364" stop-opacity="0"/>
<stop offset="1" stop-color="#FE8164"/>
</linearGradient>
<linearGradient id="paint48_linear_1_200" x1="373.897" y1="97.0765" x2="280.697" y2="303.267" gradientUnits="userSpaceOnUse">
<stop offset="0.01" stop-color="#74276C" stop-opacity="0"/>
<stop offset="0.41" stop-color="#C53364" stop-opacity="0"/>
<stop offset="1" stop-color="#FE8164"/>
</linearGradient>
<linearGradient id="paint49_linear_1_200" x1="-76.46" y1="19.22" x2="153.22" y2="231.57" gradientUnits="userSpaceOnUse">
<stop offset="0.01" stop-color="#74276C" stop-opacity="0"/>
<stop offset="0.41" stop-color="#C53364" stop-opacity="0"/>
<stop offset="1" stop-color="#FE8164"/>
</linearGradient>
<linearGradient id="paint50_linear_1_200" x1="11.67" y1="20.54" x2="310.33" y2="296.66" gradientUnits="userSpaceOnUse">
<stop offset="0.01" stop-color="#74276C" stop-opacity="0"/>
<stop offset="0.41" stop-color="#C53364" stop-opacity="0"/>
<stop offset="1" stop-color="#FE8164"/>
</linearGradient>
<linearGradient id="paint51_linear_1_200" x1="136" y1="150.85" x2="383.13" y2="369.57" gradientUnits="userSpaceOnUse">
<stop offset="0.01" stop-color="#74276C" stop-opacity="0"/>
<stop offset="0.41" stop-color="#C53364" stop-opacity="0"/>
<stop offset="1" stop-color="#FE8164"/>
</linearGradient>
<linearGradient id="paint52_linear_1_200" x1="16.8557" y1="53.187" x2="344.476" y2="333.389" gradientUnits="userSpaceOnUse">
<stop stop-color="#511C4F"/>
<stop offset="0.53" stop-color="#C53364"/>
<stop offset="0.54" stop-color="#C83764"/>
<stop offset="0.67" stop-color="#DF5764"/>
<stop offset="0.79" stop-color="#F06E64"/>
<stop offset="0.9" stop-color="#FA7C64"/>
<stop offset="1" stop-color="#FE8164"/>
</linearGradient>
<linearGradient id="paint53_linear_1_200" x1="13.26" y1="184.32" x2="260.39" y2="403.05" gradientUnits="userSpaceOnUse">
<stop stop-color="#74276C"/>
<stop offset="0.3" stop-color="#C53364"/>
<stop offset="0.32" stop-color="#C83764"/>
<stop offset="0.51" stop-color="#DF5764"/>
<stop offset="0.69" stop-color="#F06E64"/>
<stop offset="0.85" stop-color="#FA7C64"/>
<stop offset="1" stop-color="#FE8164"/>
</linearGradient>
<linearGradient id="paint54_linear_1_200" x1="437.014" y1="-115.033" x2="343.813" y2="91.1569" gradientUnits="userSpaceOnUse">
<stop offset="0.01" stop-color="#74276C" stop-opacity="0"/>
<stop offset="0.41" stop-color="#C53364" stop-opacity="0"/>
<stop offset="1" stop-color="#FE8164"/>
</linearGradient>
<linearGradient id="paint55_linear_1_200" x1="490.514" y1="-137.709" x2="383.088" y2="99.9615" gradientUnits="userSpaceOnUse">
<stop offset="0.01" stop-color="#74276C" stop-opacity="0"/>
<stop offset="0.41" stop-color="#C53364" stop-opacity="0"/>
<stop offset="1" stop-color="#FE8164"/>
</linearGradient>
<linearGradient id="paint56_linear_1_200" x1="532.283" y1="-134.437" x2="420.118" y2="113.723" gradientUnits="userSpaceOnUse">
<stop offset="0.01" stop-color="#74276C" stop-opacity="0"/>
<stop offset="0.41" stop-color="#C53364" stop-opacity="0"/>
<stop offset="1" stop-color="#FE8164"/>
</linearGradient>
<linearGradient id="paint57_linear_1_200" x1="562.336" y1="-105.242" x2="454.92" y2="132.427" gradientUnits="userSpaceOnUse">
<stop offset="0.01" stop-color="#74276C" stop-opacity="0"/>
<stop offset="0.41" stop-color="#C53364" stop-opacity="0"/>
<stop offset="1" stop-color="#FE8164"/>
</linearGradient>
<linearGradient id="paint58_linear_1_200" x1="580.666" y1="-50.1098" x2="487.468" y2="156.09" gradientUnits="userSpaceOnUse">
<stop offset="0.01" stop-color="#74276C" stop-opacity="0"/>
<stop offset="0.41" stop-color="#C53364" stop-opacity="0"/>
<stop offset="1" stop-color="#FE8164"/>
</linearGradient>
<linearGradient id="paint59_linear_1_200" x1="160.56" y1="-93.92" x2="407.69" y2="124.81" gradientUnits="userSpaceOnUse">
<stop stop-color="#74276C"/>
<stop offset="0.3" stop-color="#C53364"/>
<stop offset="0.32" stop-color="#C83764"/>
<stop offset="0.51" stop-color="#DF5764"/>
<stop offset="0.69" stop-color="#F06E64"/>
<stop offset="0.85" stop-color="#FA7C64"/>
<stop offset="1" stop-color="#FE8164"/>
</linearGradient>
</defs>
</svg>
