<svg width="26" height="26" viewBox="0 0 26 26" fill="none" xmlns="http://www.w3.org/2000/svg">
<path d="M9.37082 8.22249C9.05069 7.92418 8.55181 7.93299 8.2424 8.2424C7.93299 8.55181 7.92419 9.05069 8.22249 9.37082L12.3175 13.4658V18.5467C12.3175 18.9954 12.6813 19.3592 13.13 19.3592C13.5787 19.3592 13.9425 18.9954 13.9425 18.5467V13.13C13.9423 12.9146 13.8566 12.7081 13.7042 12.5558L9.37082 8.22249Z" fill="#8EA090"/>
<path fill-rule="evenodd" clip-rule="evenodd" d="M10.8333 2.16666H15.4267C17.7252 2.16666 19.9296 3.07975 21.5549 4.70506C23.1802 6.33038 24.0933 8.53478 24.0933 10.8333V15.4267C24.0933 20.2131 20.2131 24.0933 15.4267 24.0933H10.8333C6.04686 24.0933 2.16666 20.2131 2.16666 15.4267V10.8333C2.16666 6.04686 6.04686 2.16666 10.8333 2.16666ZM15.4267 22.4683C19.3132 22.4624 22.4624 19.3132 22.4683 15.4267V10.8333C22.4624 6.94679 19.3132 3.79762 15.4267 3.79166H10.8333C6.94679 3.79762 3.79762 6.94679 3.79166 10.8333V15.4267C3.79762 19.3132 6.94679 22.4624 10.8333 22.4683H15.4267Z" fill="#8EA090"/>
</svg>
