<svg width="26" height="26" viewBox="0 0 26 26" fill="none" xmlns="http://www.w3.org/2000/svg">
<path fill-rule="evenodd" clip-rule="evenodd" d="M20.0609 3.25H13.6476C11.8526 3.25 10.3976 4.70507 10.3976 6.5V18.72C10.3976 20.5149 11.8526 21.97 13.6476 21.97H20.0609C21.8558 21.97 23.3109 20.5149 23.3109 18.72V6.5C23.3109 4.70507 21.8558 3.25 20.0609 3.25ZM12.0659 11.9167H12.9542C13.2534 11.9167 13.4959 12.1592 13.4959 12.4583V12.805C13.4959 13.1042 13.2534 13.3467 12.9542 13.3467H12.0659V11.9167ZM20.0609 20.3667C20.9583 20.3667 21.6859 19.6391 21.6859 18.7417V6.5C21.6859 5.60254 20.9583 4.875 20.0609 4.875H13.6475C12.7501 4.875 12.0225 5.60254 12.0225 6.5V10.27H12.9109C14.1075 10.27 15.0775 11.2401 15.0775 12.4367V12.7833C15.0775 13.98 14.1075 14.95 12.9109 14.95H12.0225V18.7417C12.0225 19.6391 12.7501 20.3667 13.6475 20.3667H20.0609Z" fill="#8EA090"/>
<path fill-rule="evenodd" clip-rule="evenodd" d="M2.17505 6.955C2.04453 5.07268 3.45707 3.43762 5.33838 3.29333C7.21121 3.45434 8.60658 5.09112 8.46922 6.96583V17.0083C8.48152 17.5295 8.33819 18.0424 8.05755 18.4817L6.03172 21.6125C5.88822 21.8698 5.61671 22.0292 5.32213 22.0292C5.02755 22.0292 4.75605 21.8698 4.61255 21.6125L2.58672 18.4817C2.31244 18.0396 2.16966 17.5286 2.17505 17.0083V6.955ZM6.68172 17.5933C6.79054 17.4178 6.84692 17.2148 6.84422 17.0083L6.86589 6.955C6.87672 5.85 6.17256 4.91833 5.33839 4.91833C4.51505 4.91833 3.81089 5.87167 3.81089 6.955V17.0083C3.80165 17.2127 3.85048 17.4155 3.95172 17.5933L5.31672 19.76L6.68172 17.5933Z" fill="#8EA090"/>
<path d="M5.32756 5.61167C4.87882 5.61167 4.51506 5.97544 4.51506 6.42417V10.1725C4.51506 10.6212 4.87882 10.985 5.32756 10.985C5.77629 10.985 6.14006 10.6212 6.14006 10.1725V6.42417C6.143 6.20779 6.05834 5.99941 5.90533 5.8464C5.75231 5.69338 5.54393 5.60872 5.32756 5.61167Z" fill="#8EA090"/>
<path d="M19.8225 6.65167H16.1934C15.7446 6.65167 15.3809 7.01544 15.3809 7.46417C15.3809 7.9129 15.7446 8.27667 16.1934 8.27667H19.8225C20.2713 8.27667 20.635 7.9129 20.635 7.46417C20.635 7.01544 20.2713 6.65167 19.8225 6.65167Z" fill="#8EA090"/>
</svg>
